<svg width="120" height="22" viewBox="0 0 120 22" fill="none" xmlns="http://www.w3.org/2000/svg">
<path d="M10.376 17H8.264L2.264 11.216V17H0.68V0.199999H2.264V10.304L7.976 5H10.136L3.944 10.76L10.376 17ZM21.4001 15.488C20.1841 16.688 18.6961 17.288 16.9361 17.288C15.1761 17.288 13.6801 16.688 12.4481 15.488C11.2321 14.272 10.6241 12.776 10.6241 11C10.6241 9.224 11.2321 7.736 12.4481 6.536C13.6801 5.32 15.1761 4.712 16.9361 4.712C18.6961 4.712 20.1841 5.32 21.4001 6.536C22.6321 7.736 23.2481 9.224 23.2481 11C23.2481 12.776 22.6321 14.272 21.4001 15.488ZM13.5761 14.384C14.4881 15.296 15.6081 15.752 16.9361 15.752C18.2641 15.752 19.3841 15.296 20.2961 14.384C21.2081 13.456 21.6641 12.328 21.6641 11C21.6641 9.672 21.2081 8.552 20.2961 7.64C19.3841 6.712 18.2641 6.248 16.9361 6.248C15.6081 6.248 14.4881 6.712 13.5761 7.64C12.6641 8.552 12.2081 9.672 12.2081 11C12.2081 12.328 12.6641 13.456 13.5761 14.384ZM27.4828 6.992C28.2188 5.536 29.4828 4.808 31.2747 4.808V6.344C30.1868 6.344 29.2828 6.664 28.5628 7.304C27.8428 7.944 27.4828 8.952 27.4828 10.328V17H25.8988V5H27.4828V6.992Z" fill="#CD2E3A"/>
<path d="M38.2631 4.712C40.0391 4.712 41.4711 5.344 42.5591 6.608C43.6631 7.856 44.2151 9.336 44.2151 11.048C44.2151 11.224 44.1991 11.472 44.1671 11.792H33.6311C33.7911 13.008 34.3031 13.976 35.1671 14.696C36.0471 15.4 37.1271 15.752 38.4071 15.752C39.3191 15.752 40.1031 15.568 40.7591 15.2C41.4311 14.816 41.9351 14.32 42.2711 13.712L43.6631 14.528C43.1351 15.376 42.4151 16.048 41.5031 16.544C40.5911 17.04 39.5511 17.288 38.3831 17.288C36.4951 17.288 34.9591 16.696 33.7751 15.512C32.5911 14.328 31.9991 12.824 31.9991 11C31.9991 9.208 32.5831 7.712 33.7511 6.512C34.9191 5.312 36.4231 4.712 38.2631 4.712ZM38.2631 6.248C37.0151 6.248 35.9671 6.624 35.1191 7.376C34.2871 8.112 33.7911 9.072 33.6311 10.256H42.5831C42.4231 8.992 41.9351 8.008 41.1191 7.304C40.3031 6.6 39.3511 6.248 38.2631 6.248ZM57.0547 5H58.6387V17H57.0547V14.648C55.9507 16.408 54.3347 17.288 52.2067 17.288C50.4947 17.288 49.0307 16.68 47.8147 15.464C46.6147 14.248 46.0147 12.76 46.0147 11C46.0147 9.24 46.6147 7.752 47.8147 6.536C49.0307 5.32 50.4947 4.712 52.2067 4.712C54.3347 4.712 55.9507 5.592 57.0547 7.352V5ZM48.9667 14.384C49.8787 15.296 50.9987 15.752 52.3267 15.752C53.6547 15.752 54.7747 15.296 55.6867 14.384C56.5987 13.456 57.0547 12.328 57.0547 11C57.0547 9.672 56.5987 8.552 55.6867 7.64C54.7747 6.712 53.6547 6.248 52.3267 6.248C50.9987 6.248 49.8787 6.712 48.9667 7.64C48.0547 8.552 47.5987 9.672 47.5987 11C47.5987 12.328 48.0547 13.456 48.9667 14.384ZM67.6085 4.712C69.0645 4.712 70.2085 5.16 71.0405 6.056C71.8885 6.936 72.3125 8.128 72.3125 9.632V17H70.7285V9.632C70.7285 8.56 70.4405 7.728 69.8645 7.136C69.3045 6.544 68.5045 6.248 67.4645 6.248C66.3125 6.248 65.3765 6.616 64.6565 7.352C63.9365 8.072 63.5765 9.192 63.5765 10.712V17H61.9925V5H63.5765V6.872C64.4725 5.432 65.8165 4.712 67.6085 4.712Z" fill="#0047A0"/>
<path d="M77.3913 16.856C77.1353 17.112 76.8233 17.24 76.4553 17.24C76.0873 17.24 75.7753 17.112 75.5193 16.856C75.2633 16.6 75.1353 16.288 75.1353 15.92C75.1353 15.552 75.2633 15.24 75.5193 14.984C75.7753 14.728 76.0873 14.6 76.4553 14.6C76.8233 14.6 77.1353 14.728 77.3913 14.984C77.6473 15.24 77.7753 15.552 77.7753 15.92C77.7753 16.288 77.6473 16.6 77.3913 16.856ZM82.1546 8.144C82.1546 8.688 82.3946 9.12 82.8746 9.44C83.3546 9.76 83.9386 10.008 84.6266 10.184C85.3146 10.36 86.0026 10.56 86.6906 10.784C87.3786 10.992 87.9626 11.352 88.4426 11.864C88.9226 12.36 89.1626 13.016 89.1626 13.832C89.1626 14.856 88.7546 15.688 87.9386 16.328C87.1386 16.968 86.0986 17.288 84.8186 17.288C83.6666 17.288 82.6826 17.032 81.8666 16.52C81.0666 16.008 80.5066 15.344 80.1866 14.528L81.5306 13.736C81.7546 14.36 82.1546 14.856 82.7306 15.224C83.3226 15.576 84.0186 15.752 84.8186 15.752C85.6026 15.752 86.2586 15.6 86.7866 15.296C87.3146 14.976 87.5786 14.488 87.5786 13.832C87.5786 13.288 87.3386 12.856 86.8586 12.536C86.3786 12.216 85.7946 11.968 85.1066 11.792C84.4186 11.616 83.7306 11.424 83.0426 11.216C82.3546 10.992 81.7706 10.632 81.2906 10.136C80.8106 9.624 80.5706 8.96 80.5706 8.144C80.5706 7.168 80.9546 6.352 81.7226 5.696C82.5066 5.04 83.4906 4.712 84.6746 4.712C85.6506 4.712 86.5066 4.936 87.2426 5.384C87.9786 5.816 88.5226 6.408 88.8746 7.16L87.5546 7.928C87.0906 6.808 86.1306 6.248 84.6746 6.248C83.9866 6.248 83.3946 6.416 82.8986 6.752C82.4026 7.072 82.1546 7.536 82.1546 8.144ZM98.237 4.712C99.949 4.712 101.405 5.32 102.605 6.536C103.821 7.752 104.429 9.24 104.429 11C104.429 12.76 103.821 14.248 102.605 15.464C101.405 16.68 99.949 17.288 98.237 17.288C96.109 17.288 94.493 16.408 93.389 14.648V21.8H91.805V5H93.389V7.352C94.493 5.592 96.109 4.712 98.237 4.712ZM94.757 14.384C95.669 15.296 96.789 15.752 98.117 15.752C99.445 15.752 100.565 15.296 101.477 14.384C102.389 13.456 102.845 12.328 102.845 11C102.845 9.672 102.389 8.552 101.477 7.64C100.565 6.712 99.445 6.248 98.117 6.248C96.789 6.248 95.669 6.712 94.757 7.64C93.845 8.552 93.389 9.672 93.389 11C93.389 12.328 93.845 13.456 94.757 14.384ZM113.495 4.712C115.207 4.712 116.663 5.32 117.863 6.536C119.079 7.752 119.687 9.24 119.687 11C119.687 12.76 119.079 14.248 117.863 15.464C116.663 16.68 115.207 17.288 113.495 17.288C111.367 17.288 109.751 16.408 108.647 14.648V17H107.063V0.199999H108.647V7.352C109.751 5.592 111.367 4.712 113.495 4.712ZM110.015 14.384C110.927 15.296 112.047 15.752 113.375 15.752C114.703 15.752 115.823 15.296 116.735 14.384C117.647 13.456 118.103 12.328 118.103 11C118.103 9.672 117.647 8.552 116.735 7.64C115.823 6.712 114.703 6.248 113.375 6.248C112.047 6.248 110.927 6.712 110.015 7.64C109.103 8.552 108.647 9.672 108.647 11C108.647 12.328 109.103 13.456 110.015 14.384Z" fill="black"/>
</svg>
