<svg width="32" height="22" viewBox="0 0 32 22" fill="none" xmlns="http://www.w3.org/2000/svg">
<path d="M32 18.3332C32 18.9763 31.8027 19.5724 31.4866 20.0969L21.3829 9.73438L31.377 1.71903C31.7658 2.28459 32 2.94893 32 3.66683V18.3332ZM16 11.6159L29.9066 0.461996C29.3359 0.175621 28.6933 0 28.0001 0H3.99998C3.30591 0 2.66309 0.175621 2.09473 0.461996L16 11.6159ZM19.8771 10.9411L16.6581 13.5246C16.4698 13.6749 16.2353 13.75 16 13.75C15.7646 13.75 15.5301 13.6749 15.3418 13.5246L12.1221 10.941L1.89061 21.436C2.50388 21.7887 3.22261 22 3.99991 22H28.0001C28.7773 22 29.4963 21.7887 30.1094 21.436L19.8771 10.9411ZM0.623102 1.71897C0.234389 2.28453 0 2.94887 0 3.66683V18.3333C0 18.9764 0.196401 19.5725 0.51369 20.097L10.6162 9.73263L0.623102 1.71897Z" fill="black"/>
</svg>
