<svg width="27" height="25" viewBox="0 0 27 25" fill="none" xmlns="http://www.w3.org/2000/svg">
<path d="M24.3896 22.8616L22.5999 24.5186C22.2802 24.8131 21.3441 24.9993 21.3161 24.9993C15.6503 25.0435 10.1955 22.9837 6.18685 19.2713C2.16668 15.5498 -0.0605546 10.4794 0.00125289 5.21835C0.00125289 5.21527 0.206452 4.37304 0.525351 4.08007L2.31508 2.42148C2.97181 1.8142 4.22916 1.53955 5.11002 1.81113L5.48741 1.92861C6.36827 2.20019 7.28863 3.10043 7.53254 3.92895L8.43397 6.99129C8.67867 7.82137 8.34991 9.00232 7.69402 9.6096L6.49758 10.7174C7.67097 14.7441 11.0814 17.901 15.428 18.9889L16.6244 17.8811C17.2803 17.2738 18.5592 16.9702 19.4557 17.196L22.7632 18.0322C23.6564 18.2565 24.6287 19.1079 24.9238 19.9242L25.049 20.2736C25.3421 21.0901 25.0455 22.2543 24.3896 22.8616ZM15.1873 12.4996H16.8749C16.8749 10.7739 15.3637 9.37473 13.4998 9.37473V10.9372C14.43 10.9372 15.1873 11.639 15.1873 12.4996ZM21.9374 12.4996C21.9374 8.18455 18.1603 4.68734 13.4998 4.68734V6.24984C17.2225 6.24984 20.2499 9.05432 20.2499 12.4996H21.9374ZM13.4998 0V1.56245C20.0126 1.56245 25.3125 6.46952 25.3125 12.4996H27C27 5.59676 20.9553 0 13.4998 0Z" fill="black"/>
</svg>
